<svg width="64" height="64" xmlns="http://www.w3.org/2000/svg">

 <g>
  <title>background</title>
  <rect fill="none" id="canvas_background" height="66" width="66" y="-1" x="-1"/>
 </g>
 <g>
  <title>Layer 1</title>
  <path id="svg_2" stroke-linecap="round" stroke-width="3" stroke="#ffffff" fill="none" d="m52.847324,5.149897q0,0 0,-0.072036q0,-0.072036 -0.050842,-0.194798q-0.050728,-0.122993 -0.166309,-0.144072q-0.115463,-0.021078 -0.512589,-0.256874q-0.397125,-0.235796 -1.064671,-0.447735q-0.667435,-0.211938 -1.738243,-0.524866q-1.07093,-0.312696 -2.562725,-0.433605q-1.491905,-0.121141 -3.377464,0.070183q-1.885674,0.191324 -4.132919,0.735647q-2.24736,0.544091 -4.707466,1.482875q-2.459984,0.939014 -5.170597,2.278976q-2.710611,1.340194 -5.172922,3.133911q-2.462425,1.793489 -4.797224,3.955029q-2.334801,2.161544 -4.46496,4.518811q-2.130041,2.357035 -3.800649,4.825251q-1.670726,2.468216 -3.09581,5.185198q-1.425084,2.717213 -2.425596,5.369568q-1.000396,2.652363 -1.499088,5.221565q-0.498693,2.56921 -0.50182,4.920452q-0.003127,2.351013 0.478657,4.404613q0.481899,2.053604 1.693423,3.804474q1.211523,1.75087 2.890935,3.104725q1.679526,1.35363 3.783509,2.157375q2.103981,0.803745 4.313126,1.056446q2.209261,0.252476 4.422108,0.02224q2.212847,-0.230007 4.672607,-1.099762q2.459646,-0.869762 4.903774,-2.581249q2.444118,-1.711494 4.911983,-4.046757q2.467754,-2.33503 4.657436,-5.029079q2.189796,-2.694054 4.016178,-5.405014q1.826378,-2.711193 3.486565,-5.369343q1.660183,-2.657917 3.089207,-5.405706q1.429138,-2.747787 2.691624,-5.861317q1.262478,-3.113529 2.292755,-6.296545q1.030392,-3.182785 1.825451,-5.889809q0.795174,-2.707023 1.277428,-4.618408q0.482361,-1.911385 0.614269,-3.142018q0.131912,-1.230402 0.09103,-1.778894q-0.040768,-0.548493 -0.221901,-0.754872q-0.181129,-0.206148 -0.495678,-0.171404q-0.314552,0.034975 -0.993797,0.389365q-0.679245,0.354157 -1.805763,1.371462q-1.126514,1.017074 -2.452003,2.748253q-1.325481,1.730947 -2.618423,4.12342q-1.292942,2.392707 -2.439262,5.148139q-1.14632,2.755203 -2.154366,5.736471q-1.008041,2.981272 -1.603668,5.951424q-0.595741,2.970383 -0.875893,5.836994q-0.280037,2.866615 -0.280037,5.542599q0,2.675987 0.093922,4.989471q0.09404,2.313492 0.914581,4.355747q0.820534,2.042023 2.340244,4.099564q1.519699,2.057304 3.573307,4.021042q2.0536,1.963963 4.679211,3.722244q2.625721,1.758278 3.143059,2.007275l0.517456,0.249001"/>
 </g>
</svg>