<svg width="805" height="340" xmlns="http://www.w3.org/2000/svg">

 <g>
  <title>background</title>
  <rect fill="none" id="canvas_background" height="342" width="807" y="-1" x="-1"/>
 </g>
 <g>
  <title>Layer 1</title>
  <path id="svg_2" stroke-linecap="round" stroke-width="15.215" stroke="#ffffff" fill="none" d="m315.909485,13.674656q0,0 -1.842957,-1.842953q-1.842896,-1.843048 -8.039673,-2.057384q-6.196899,-0.214485 -22.846008,2.87162q-16.64917,3.086105 -36.558228,10.613289q-19.909302,7.527061 -48.333801,23.307087q-28.4245,15.779922 -60.559448,40.350555q-32.13501,24.57048 -58.168335,53.241745q-26.033508,28.671234 -44.583862,58.20871q-18.550598,29.537491 -23.540161,52.324783q-4.989807,22.787231 6.651428,37.087769q11.641235,14.300385 36.18573,17.090271q24.5448,2.789886 54.964905,-8.092529q30.420105,-10.882507 64.872375,-35.75238q34.452332,-24.869995 69.234436,-57.016724q34.78186,-32.14679 62.823853,-64.61528q28.041931,-32.468628 47.217163,-57.289017q19.175171,-24.820511 30.050903,-40.402504q10.875549,-15.582146 11.793213,-21.576809q0.917419,-5.994667 -0.49054,-8.658981q-1.407959,-2.66444 -9.679504,0.497131q-8.27179,3.161598 -30.171204,17.547756q-21.899719,14.386063 -51.209656,45.349533q-29.31012,30.963356 -57.068298,67.590858q-27.757935,36.627518 -49.471008,71.254288q-21.712769,34.626602 -31.610046,59.984543q-9.897034,25.358002 -7.494324,40.373169q2.402527,15.01532 19.138306,15.558777q16.735535,0.543488 49.415771,-11.867889q32.679932,-12.411499 61.874939,-37.733734q29.194763,-25.322296 50.036377,-50.53244q20.841553,-25.210297 32.574463,-37.717911q11.732849,-12.507675 15.409912,-16.184753q3.677124,-3.677185 3.531006,-3.583618q-0.146484,0.093521 -4.350952,4.303299q-4.204468,4.209747 -13.390686,15.536026q-9.18634,11.326172 -15.305298,21.541916q-6.119019,10.215698 -6.101929,14.279785q0.01709,4.064087 3.9599,5.109528q3.942505,1.045258 15.893616,1.045258q11.950989,0 32.229736,-3.958221q20.278748,-3.958344 38.80896,-6.172226q18.529968,-2.213974 29.149841,-2.213974q10.619568,0 13.191833,0.856506q2.572205,0.85643 2.572205,3.742889q0,2.886322 -0.827759,6.971497q-0.828003,4.085052 -1.028748,6.319794q-0.200867,2.23468 1.619385,2.459106q1.820374,0.224274 7.893127,0.224274q6.072571,0 23.82428,-3.540436q17.751648,-3.540466 40.513489,-9.378418q22.761597,-5.837921 38.937134,-8.477615q16.175171,-2.639816 23.947266,-2.966095q7.771973,-0.32634 9.485107,0.324371q1.712769,0.650604 1.712769,3.257034q0,2.606277 0,6.785645q0,4.17923 0.596191,6.597443q0.596069,2.41803 4.339966,3.879364q3.743774,1.461304 16.566162,1.461304q12.822632,0 32.789063,0q19.966431,0 35.615601,0q15.649048,0 27.550293,0.482056q11.901367,0.482086 18.600098,4.036987q6.69873,3.554749 8.692871,3.966766q1.994141,0.411987 5.67627,2.135376q3.681885,1.723236 7.282227,3.167877l3.60083,1.444458"/>
 </g>
</svg>